<?xml version="1.0" encoding="UTF-8"?>
<!DOCTYPE svg PUBLIC "-//W3C//DTD SVG 1.1//EN" "http://www.w3.org/Graphics/SVG/1.1/DTD/svg11.dtd">
<svg xmlns="http://www.w3.org/2000/svg" version="1.1" width="192px" height="192px" style="shape-rendering:geometricPrecision; text-rendering:geometricPrecision; image-rendering:optimizeQuality; fill-rule:evenodd; clip-rule:evenodd" xmlns:xlink="http://www.w3.org/1999/xlink">
<g><path style="opacity:0.999" fill="#219cee" d="M 10.5,-0.5 C 67.1667,-0.5 123.833,-0.5 180.5,-0.5C 184.5,2.83333 188.167,6.5 191.5,10.5C 191.5,67.1667 191.5,123.833 191.5,180.5C 188.167,184.5 184.5,188.167 180.5,191.5C 123.833,191.5 67.1667,191.5 10.5,191.5C 6.5,188.167 2.83333,184.5 -0.5,180.5C -0.5,123.833 -0.5,67.1667 -0.5,10.5C 2.83333,6.5 6.5,2.83333 10.5,-0.5 Z"/></g>
<g><path style="opacity:1" fill="#f7fbfe" d="M 30.5,64.5 C 40.7233,63.3178 44.89,67.6511 43,77.5C 41.4571,79.3783 39.6238,80.8783 37.5,82C 43.7696,86.7093 45.9363,92.876 44,100.5C 37.884,109.095 29.7173,111.928 19.5,109C 12.9348,102.299 12.9348,95.6322 19.5,89C 21.1341,88.5065 22.8008,88.3398 24.5,88.5C 23.6693,92.4761 23.5027,96.4761 24,100.5C 27.6187,103.343 30.952,103.01 34,99.5C 34.6667,97.1667 34.6667,94.8333 34,92.5C 32.1398,89.7281 29.8065,87.3947 27,85.5C 20.1861,77.049 21.3527,70.049 30.5,64.5 Z"/></g>
<g><path style="opacity:1" fill="#f6fafe" d="M 124.5,65.5 C 128.692,65.1766 130.692,67.1766 130.5,71.5C 130.209,75.9523 128.376,79.619 125,82.5C 124.333,83.8333 124.333,85.1667 125,86.5C 129.679,80.6652 135.012,79.9985 141,84.5C 141.79,87.634 141.457,90.634 140,93.5C 137.358,95.2376 134.525,96.5709 131.5,97.5C 134.814,105.167 138.98,105.501 144,98.5C 146.927,85.4102 155.094,79.4102 168.5,80.5C 170.258,81.1279 171.758,82.1279 173,83.5C 172.125,87.6965 171.625,92.0299 171.5,96.5C 171.833,98.8333 172.167,101.167 172.5,103.5C 174.984,101.517 177.317,99.3504 179.5,97C 180.448,96.5172 181.448,96.3505 182.5,96.5C 180.798,105.373 175.465,109.54 166.5,109C 165.789,107.745 164.956,106.579 164,105.5C 157.382,112.033 150.882,112.033 144.5,105.5C 138.873,111.968 133.373,111.968 128,105.5C 126.66,102.798 125.327,100.131 124,97.5C 123.667,101.167 123.333,104.833 123,108.5C 117.875,111.85 114.709,110.517 113.5,104.5C 110.557,105.244 107.557,105.744 104.5,106C 96.4675,112.468 88.9675,111.968 82,104.5C 78.584,108.587 74.584,111.92 70,114.5C 67.6015,124.933 61.4348,128.433 51.5,125C 47.447,122.151 46.7804,118.818 49.5,115C 53.8146,112.451 58.4813,111.118 63.5,111C 64.5171,109.951 64.6838,108.784 64,107.5C 60.0328,109.386 55.8661,109.886 51.5,109C 48.7352,106.005 47.9019,102.505 49,98.5C 50.5329,93.056 51.6995,87.556 52.5,82C 59.6667,79.8333 62.1667,82.3333 60,89.5C 57.5604,93.8434 57.0604,98.3434 58.5,103C 60.7008,103.825 62.5341,103.325 64,101.5C 66.3081,94.9364 68.3081,88.2698 70,81.5C 74.3552,79.9844 76.8552,81.6511 77.5,86.5C 75.6554,93.1742 74.1554,99.8409 73,106.5C 75.6667,103.833 78.3333,101.167 81,98.5C 82.2959,85.4289 89.4625,79.9289 102.5,82C 103.91,82.3678 104.91,83.2011 105.5,84.5C 96.8989,84.6195 91.5656,88.7861 89.5,97C 90.694,103.149 94.3607,105.149 100.5,103C 95.3451,97.8431 95.3451,92.8431 100.5,88C 103.669,87.0218 106.503,87.5218 109,89.5C 109.498,92.8168 109.665,96.1501 109.5,99.5C 111.903,99.607 113.736,98.607 115,96.5C 115.862,85.4161 119.029,75.0828 124.5,65.5 Z"/></g>
<g><path style="opacity:1" fill="#39a3ef" d="M 31.5,70.5 C 39.5723,71.007 40.739,74.3404 35,80.5C 31.2085,77.9467 30.0418,74.6134 31.5,70.5 Z"/></g>
<g><path style="opacity:1" fill="#2c9fee" d="M 162.5,85.5 C 163.586,85.62 164.253,86.2867 164.5,87.5C 163.818,91.1379 163.318,94.8046 163,98.5C 161.348,102.877 158.181,104.544 153.5,103.5C 151.758,94.9831 154.758,88.9831 162.5,85.5 Z"/></g>
<g><path style="opacity:1" fill="#47a7f0" d="M 129.5,87.5 C 130.833,87.5 132.167,87.5 133.5,87.5C 133.66,89.1992 133.494,90.8659 133,92.5C 123.207,97.0775 122.04,95.4108 129.5,87.5 Z"/></g>
<g><path style="opacity:1" fill="#58aff1" d="M 103.5,91.5 C 106.79,92.6562 107.29,94.6562 105,97.5C 103.681,95.7505 103.181,93.7505 103.5,91.5 Z"/></g>
<g><path style="opacity:1" fill="#3ea5ef" d="M 53.5,117.5 C 56.2469,117.187 58.9135,117.52 61.5,118.5C 59.6429,121.506 57.1429,122.172 54,120.5C 53.5172,119.552 53.3505,118.552 53.5,117.5 Z"/></g>
</svg>
