<?xml version="1.0" encoding="UTF-8"?>
<svg xmlns="http://www.w3.org/2000/svg" xmlns:xlink="http://www.w3.org/1999/xlink" width="48px" height="48px" viewBox="0 0 48 48" version="1.1">
<g id="surface1">
<path style=" stroke:none;fill-rule:evenodd;fill:rgb(12.941177%,61.176473%,93.333334%);fill-opacity:1;" d="M 2.625 -0.125 C 16.792969 -0.125 30.957031 -0.125 45.125 -0.125 C 46.125 0.707031 47.042969 1.625 47.875 2.625 C 47.875 16.792969 47.875 30.957031 47.875 45.125 C 47.042969 46.125 46.125 47.042969 45.125 47.875 C 30.957031 47.875 16.792969 47.875 2.625 47.875 C 1.625 47.042969 0.707031 46.125 -0.125 45.125 C -0.125 30.957031 -0.125 16.792969 -0.125 2.625 C 0.707031 1.625 1.625 0.707031 2.625 -0.125 Z M 2.625 -0.125 "/>
<path style=" stroke:none;fill-rule:evenodd;fill:rgb(96.862745%,98.431373%,99.607843%);fill-opacity:1;" d="M 7.625 16.125 C 10.179688 15.828125 11.222656 16.914062 10.75 19.375 C 10.363281 19.84375 9.90625 20.21875 9.375 20.5 C 10.941406 21.675781 11.484375 23.21875 11 25.125 C 9.472656 27.273438 7.429688 27.980469 4.875 27.25 C 3.234375 25.574219 3.234375 23.90625 4.875 22.25 C 5.285156 22.125 5.699219 22.085938 6.125 22.125 C 5.917969 23.117188 5.875 24.117188 6 25.125 C 6.90625 25.835938 7.738281 25.753906 8.5 24.875 C 8.667969 24.292969 8.667969 23.707031 8.5 23.125 C 8.035156 22.433594 7.453125 21.847656 6.75 21.375 C 5.046875 19.261719 5.339844 17.511719 7.625 16.125 Z M 7.625 16.125 "/>
<path style=" stroke:none;fill-rule:evenodd;fill:rgb(96.470588%,98.039216%,99.607843%);fill-opacity:1;" d="M 31.125 16.375 C 32.171875 16.292969 32.671875 16.792969 32.625 17.875 C 32.550781 18.988281 32.09375 19.90625 31.25 20.625 C 31.082031 20.957031 31.082031 21.292969 31.25 21.625 C 32.417969 20.167969 33.753906 20 35.25 21.125 C 35.449219 21.910156 35.363281 22.660156 35 23.375 C 34.339844 23.808594 33.632812 24.144531 32.875 24.375 C 33.703125 26.292969 34.746094 26.375 36 24.625 C 36.730469 21.351562 38.773438 19.851562 42.125 20.125 C 42.566406 20.28125 42.941406 20.53125 43.25 20.875 C 43.03125 21.925781 42.90625 23.007812 42.875 24.125 C 42.957031 24.707031 43.042969 25.292969 43.125 25.875 C 43.746094 25.378906 44.328125 24.835938 44.875 24.25 C 45.113281 24.128906 45.363281 24.085938 45.625 24.125 C 45.199219 26.34375 43.867188 27.386719 41.625 27.25 C 41.445312 26.9375 41.238281 26.644531 41 26.375 C 39.34375 28.007812 37.71875 28.007812 36.125 26.375 C 34.71875 27.992188 33.34375 27.992188 32 26.375 C 31.664062 25.699219 31.332031 25.03125 31 24.375 C 30.917969 25.292969 30.832031 26.207031 30.75 27.125 C 29.46875 27.960938 28.675781 27.628906 28.375 26.125 C 27.640625 26.3125 26.890625 26.4375 26.125 26.5 C 24.117188 28.117188 22.242188 27.992188 20.5 26.125 C 19.644531 27.148438 18.644531 27.980469 17.5 28.625 C 16.898438 31.234375 15.359375 32.109375 12.875 31.25 C 11.863281 30.539062 11.695312 29.703125 12.375 28.75 C 13.453125 28.113281 14.621094 27.78125 15.875 27.75 C 16.128906 27.488281 16.171875 27.195312 16 26.875 C 15.007812 27.347656 13.964844 27.472656 12.875 27.25 C 12.183594 26.5 11.976562 25.625 12.25 24.625 C 12.632812 23.265625 12.925781 21.890625 13.125 20.5 C 14.917969 19.957031 15.542969 20.582031 15 22.375 C 14.390625 23.460938 14.265625 24.585938 14.625 25.75 C 15.175781 25.957031 15.632812 25.832031 16 25.375 C 16.578125 23.734375 17.078125 22.066406 17.5 20.375 C 18.589844 19.996094 19.214844 20.414062 19.375 21.625 C 18.914062 23.292969 18.539062 24.960938 18.25 26.625 C 18.917969 25.957031 19.582031 25.292969 20.25 24.625 C 20.574219 21.355469 22.367188 19.980469 25.625 20.5 C 25.976562 20.59375 26.226562 20.800781 26.375 21.125 C 24.226562 21.15625 22.890625 22.195312 22.375 24.25 C 22.671875 25.789062 23.589844 26.289062 25.125 25.75 C 23.835938 24.460938 23.835938 23.210938 25.125 22 C 25.917969 21.753906 26.625 21.878906 27.25 22.375 C 27.375 23.203125 27.417969 24.039062 27.375 24.875 C 27.976562 24.902344 28.433594 24.652344 28.75 24.125 C 28.964844 21.355469 29.757812 18.769531 31.125 16.375 Z M 31.125 16.375 "/>
<path style=" stroke:none;fill-rule:evenodd;fill:rgb(22.352941%,63.921571%,93.725491%);fill-opacity:1;" d="M 7.875 17.625 C 9.894531 17.75 10.183594 18.585938 8.75 20.125 C 7.800781 19.488281 7.511719 18.652344 7.875 17.625 Z M 7.875 17.625 "/>
<path style=" stroke:none;fill-rule:evenodd;fill:rgb(17.254902%,62.352943%,93.333334%);fill-opacity:1;" d="M 40.625 21.375 C 40.898438 21.40625 41.0625 21.570312 41.125 21.875 C 40.953125 22.785156 40.828125 23.699219 40.75 24.625 C 40.335938 25.71875 39.546875 26.136719 38.375 25.875 C 37.941406 23.746094 38.691406 22.246094 40.625 21.375 Z M 40.625 21.375 "/>
<path style=" stroke:none;fill-rule:evenodd;fill:rgb(27.843139%,65.490198%,94.117647%);fill-opacity:1;" d="M 32.375 21.875 C 32.707031 21.875 33.042969 21.875 33.375 21.875 C 33.414062 22.300781 33.375 22.714844 33.25 23.125 C 30.800781 24.269531 30.511719 23.851562 32.375 21.875 Z M 32.375 21.875 "/>
<path style=" stroke:none;fill-rule:evenodd;fill:rgb(34.509805%,68.627453%,94.509804%);fill-opacity:1;" d="M 25.875 22.875 C 26.699219 23.164062 26.824219 23.664062 26.25 24.375 C 25.921875 23.9375 25.796875 23.4375 25.875 22.875 Z M 25.875 22.875 "/>
<path style=" stroke:none;fill-rule:evenodd;fill:rgb(24.313726%,64.705884%,93.725491%);fill-opacity:1;" d="M 13.375 29.375 C 14.0625 29.296875 14.726562 29.378906 15.375 29.625 C 14.910156 30.375 14.285156 30.542969 13.5 30.125 C 13.378906 29.886719 13.335938 29.636719 13.375 29.375 Z M 13.375 29.375 "/>
</g>
</svg>
